<svg width="298" height="48" viewBox="0 0 298 48" fill="none" xmlns="http://www.w3.org/2000/svg">
<circle cx="24" cy="24" r="23" stroke="#18191F" stroke-width="2"/>
<path fill-rule="evenodd" clip-rule="evenodd" d="M20.2273 17.2007C20.1296 17.1348 20 17.1247 19.8917 17.1754C19.7837 17.2261 19.7156 17.3289 19.7156 17.4413V30.5595C19.7156 30.6719 19.7837 30.7747 19.8917 30.8254C19.9374 30.8469 19.9875 30.8576 20.037 30.8576C20.1042 30.8576 20.171 30.8382 20.2273 30.8001L29.8701 24.241C29.9528 24.1847 30.0013 24.0952 30.0013 24.0004C30.0013 23.9056 29.9528 23.8162 29.8701 23.7598L20.2273 17.2007Z" stroke="#18191F" stroke-width="2"/>
<line x1="56" y1="23" x2="136" y2="23" stroke="#18191F" stroke-width="2"/>
<path d="M149.306 29.21C150.463 29.21 151.434 28.923 152.218 28.349C153.007 27.775 153.562 26.998 153.884 26.018L151.966 25.486C151.779 26.0927 151.464 26.5663 151.021 26.907C150.578 27.2477 150.006 27.418 149.306 27.418C148.349 27.418 147.628 27.1053 147.143 26.48C146.662 25.85 146.422 25.01 146.422 23.96C146.422 22.91 146.662 22.0723 147.143 21.447C147.628 20.817 148.349 20.502 149.306 20.502C150.006 20.502 150.578 20.6723 151.021 21.013C151.464 21.349 151.779 21.8227 151.966 22.434L153.884 21.902C153.562 20.922 153.007 20.145 152.218 19.571C151.434 18.997 150.463 18.71 149.306 18.71C148.298 18.71 147.428 18.9293 146.695 19.368C145.967 19.8067 145.405 20.4203 145.008 21.209C144.616 21.9977 144.42 22.9147 144.42 23.96C144.42 25.0053 144.616 25.9223 145.008 26.711C145.405 27.4997 145.967 28.1133 146.695 28.552C147.428 28.9907 148.298 29.21 149.306 29.21ZM157.425 29H159.203V22.98L162.129 29H162.801L165.727 22.98V29H167.505V18.92H165.797L162.465 25.612L159.133 18.92H157.425V29ZM175.796 29.21C176.804 29.21 177.672 28.9907 178.4 28.552C179.133 28.1133 179.695 27.4997 180.087 26.711C180.484 25.9223 180.682 25.0053 180.682 23.96C180.682 22.9147 180.484 21.9977 180.087 21.209C179.695 20.4203 179.133 19.8067 178.4 19.368C177.672 18.9293 176.804 18.71 175.796 18.71C174.788 18.71 173.918 18.9293 173.185 19.368C172.457 19.8067 171.895 20.4203 171.498 21.209C171.106 21.9977 170.91 22.9147 170.91 23.96C170.91 25.0053 171.106 25.9223 171.498 26.711C171.895 27.4997 172.457 28.1133 173.185 28.552C173.918 28.9907 174.788 29.21 175.796 29.21ZM175.796 27.418C174.84 27.404 174.121 27.0867 173.64 26.466C173.164 25.8453 172.926 25.01 172.926 23.96C172.926 22.91 173.164 22.0677 173.64 21.433C174.121 20.7983 174.84 20.488 175.796 20.502C176.758 20.516 177.476 20.8333 177.952 21.454C178.428 22.0747 178.666 22.91 178.666 23.96C178.666 25.01 178.428 25.8523 177.952 26.487C177.476 27.1217 176.758 27.432 175.796 27.418ZM186.144 29H188.048V20.698H191.226V18.92H182.966V20.698H186.144V29ZM194.351 29H196.255V25.584H198.607C198.7 25.584 198.831 25.5793 198.999 25.57C199.167 25.5607 199.316 25.5467 199.447 25.528C200.343 25.388 201.001 25.0193 201.421 24.422C201.841 23.82 202.051 23.0967 202.051 22.252C202.051 21.4027 201.843 20.6793 201.428 20.082C201.013 19.4847 200.352 19.116 199.447 18.976C199.316 18.9527 199.167 18.9387 198.999 18.934C198.836 18.9247 198.705 18.92 198.607 18.92H194.351V29ZM196.255 23.806V20.698H198.523C198.621 20.698 198.728 20.7027 198.845 20.712C198.962 20.7213 199.069 20.74 199.167 20.768C199.424 20.838 199.622 20.957 199.762 21.125C199.902 21.2883 199.998 21.4727 200.049 21.678C200.105 21.8787 200.133 22.07 200.133 22.252C200.133 22.434 200.105 22.6277 200.049 22.833C199.998 23.0337 199.902 23.218 199.762 23.386C199.622 23.5493 199.424 23.666 199.167 23.736C199.069 23.764 198.962 23.7827 198.845 23.792C198.728 23.8013 198.621 23.806 198.523 23.806H196.255ZM205.457 29H212.037V27.222H207.361V24.632H211.197V22.854H207.361V20.698H212.037V18.92H205.457V29ZM218.052 29H219.956V20.698H223.134V18.92H214.874V20.698H218.052V29ZM226.245 29H230.501C230.599 29 230.73 28.9953 230.893 28.986C231.061 28.9767 231.211 28.9627 231.341 28.944C232.247 28.804 232.907 28.4353 233.322 27.838C233.738 27.236 233.945 26.5127 233.945 25.668C233.945 24.8187 233.735 24.0953 233.315 23.498C232.895 22.9007 232.237 22.532 231.341 22.392C231.211 22.3687 231.061 22.3547 230.893 22.35C230.725 22.3407 230.595 22.336 230.501 22.336H228.149V18.92H226.245V29ZM228.149 27.222V24.114H230.417C230.515 24.114 230.623 24.1187 230.739 24.128C230.856 24.1373 230.963 24.156 231.061 24.184C231.318 24.254 231.516 24.373 231.656 24.541C231.796 24.7043 231.892 24.8887 231.943 25.094C231.999 25.2947 232.027 25.486 232.027 25.668C232.027 25.85 231.999 26.0437 231.943 26.249C231.892 26.4497 231.796 26.634 231.656 26.802C231.516 26.9653 231.318 27.082 231.061 27.152C230.963 27.18 230.856 27.1987 230.739 27.208C230.623 27.2173 230.515 27.222 230.417 27.222H228.149ZM242.291 29H246.757C247.788 29 248.553 28.7177 249.053 28.153C249.557 27.5837 249.809 26.8487 249.809 25.948C249.809 25.4627 249.69 25.017 249.452 24.611C249.218 24.2003 248.866 23.897 248.395 23.701C248.693 23.519 248.927 23.2623 249.095 22.931C249.263 22.5997 249.347 22.2053 249.347 21.748C249.347 21.3047 249.244 20.866 249.039 20.432C248.833 19.998 248.509 19.6387 248.066 19.354C247.622 19.0647 247.041 18.92 246.323 18.92H242.291V29ZM244.223 22.854V20.698H246.295C246.659 20.698 246.936 20.803 247.128 21.013C247.319 21.223 247.415 21.482 247.415 21.79C247.415 22.1587 247.307 22.4293 247.093 22.602C246.883 22.77 246.617 22.854 246.295 22.854H244.223ZM244.223 27.208V24.632H246.561C247.004 24.632 247.335 24.751 247.555 24.989C247.779 25.2223 247.891 25.5187 247.891 25.878C247.891 26.284 247.765 26.6083 247.513 26.851C247.265 27.089 246.948 27.208 246.561 27.208H244.223ZM261.451 29H259.519V22.28L255.137 29H253.205V18.92H255.137V25.64L259.519 18.92H261.451V29ZM264.844 30.68H266.748V29H272.558V30.68H274.462V27.222H273.692V18.92L267 18.906C266.93 19.928 266.869 20.8497 266.818 21.671C266.766 22.4877 266.706 23.316 266.636 24.156C266.584 24.744 266.496 25.269 266.37 25.731C266.244 26.193 266.059 26.557 265.817 26.823C265.574 27.089 265.25 27.222 264.844 27.222V30.68ZM267.686 27.222C267.877 26.97 268.019 26.7273 268.113 26.494C268.211 26.2607 268.283 25.9877 268.33 25.675C268.376 25.3577 268.423 24.954 268.47 24.464C268.516 23.974 268.554 23.5307 268.582 23.134C268.61 22.7373 268.633 22.3453 268.652 21.958C268.675 21.5707 268.703 21.146 268.736 20.684L271.788 20.698V27.222H267.686ZM278 29H284.58V27.222H279.904V24.632H283.74V22.854H279.904V20.698H284.58V18.92H278V29ZM292.16 29.21C293.168 29.21 294.036 28.9907 294.764 28.552C295.496 28.1133 296.059 27.4997 296.451 26.711C296.847 25.9223 297.046 25.0053 297.046 23.96C297.046 22.9147 296.847 21.9977 296.451 21.209C296.059 20.4203 295.496 19.8067 294.764 19.368C294.036 18.9293 293.168 18.71 292.16 18.71C291.152 18.71 290.281 18.9293 289.549 19.368C288.821 19.8067 288.258 20.4203 287.862 21.209C287.47 21.9977 287.274 22.9147 287.274 23.96C287.274 25.0053 287.47 25.9223 287.862 26.711C288.258 27.4997 288.821 28.1133 289.549 28.552C290.281 28.9907 291.152 29.21 292.16 29.21ZM292.16 27.418C291.203 27.404 290.484 27.0867 290.004 26.466C289.528 25.8453 289.29 25.01 289.29 23.96C289.29 22.91 289.528 22.0677 290.004 21.433C290.484 20.7983 291.203 20.488 292.16 20.502C293.121 20.516 293.84 20.8333 294.316 21.454C294.792 22.0747 295.03 22.91 295.03 23.96C295.03 25.01 294.792 25.8523 294.316 26.487C293.84 27.1217 293.121 27.432 292.16 27.418Z" fill="#18191F"/>
</svg>
