<svg width="28" height="32" viewBox="0 0 28 32" fill="none" xmlns="http://www.w3.org/2000/svg">
<path d="M25.9998 32H13.9998C13.6462 32 13.3071 31.8595 13.057 31.6094C12.807 31.3594 12.6665 31.0202 12.6665 30.6666V28C12.6665 27.6463 12.807 27.3072 13.057 27.0571C13.3071 26.8071 13.6462 26.6666 13.9998 26.6666H25.9998C26.3535 26.6666 26.6926 26.8071 26.9426 27.0571C27.1927 27.3072 27.3332 27.6463 27.3332 28V30.6666C27.3332 31.0202 27.1927 31.3594 26.9426 31.6094C26.6926 31.8595 26.3535 32 25.9998 32Z" fill="#D6B1FF"/>
<path d="M25.9998 0H1.99984C1.64622 0 1.30708 0.140475 1.05703 0.390523C0.806979 0.640572 0.666504 0.979711 0.666504 1.33333V4C0.666504 4.35362 0.806979 4.69276 1.05703 4.94281C1.30708 5.19286 1.64622 5.33333 1.99984 5.33333H25.9998C26.3535 5.33333 26.6926 5.19286 26.9426 4.94281C27.1927 4.69276 27.3332 4.35362 27.3332 4V1.33333C27.3332 0.979711 27.1927 0.640572 26.9426 0.390523C26.6926 0.140475 26.3535 0 25.9998 0Z" fill="#2EC5CE"/>
<path d="M25.9998 8H1.99984C1.64622 8 1.30708 8.14047 1.05703 8.39052C0.806979 8.64057 0.666504 8.97971 0.666504 9.33333V22.6667C0.666504 23.0203 0.806979 23.3594 1.05703 23.6095C1.30708 23.8595 1.64622 24 1.99984 24H25.9998C26.3535 24 26.6926 23.8595 26.9426 23.6095C27.1927 23.3594 27.3332 23.0203 27.3332 22.6667V9.33333C27.3332 8.97971 27.1927 8.64057 26.9426 8.39052C26.6926 8.14047 26.3535 8 25.9998 8Z" fill="#8C30F5"/>
</svg>
