<svg width="24" height="24" viewBox="0 0 24 24" fill="none" xmlns="http://www.w3.org/2000/svg">
<path opacity="0.1" fill-rule="evenodd" clip-rule="evenodd" d="M0 12C0 5.37258 5.37258 0 12 0C18.6274 0 24 5.37258 24 12C24 18.6274 18.6274 24 12 24C5.37258 24 0 18.6274 0 12Z" fill="white"/>
<path fill-rule="evenodd" clip-rule="evenodd" d="M12.0007 5.6001C10.2625 5.6001 10.0444 5.6077 9.36174 5.63876C8.6804 5.66997 8.21533 5.77783 7.80839 5.9361C7.38745 6.09957 7.03038 6.31824 6.67464 6.67411C6.31864 7.02985 6.09997 7.38692 5.93597 7.80772C5.7773 8.21479 5.6693 8.68 5.63863 9.36107C5.6081 10.0437 5.6001 10.262 5.6001 12.0002C5.6001 13.7383 5.60783 13.9558 5.63876 14.6385C5.6701 15.3198 5.77797 15.7849 5.9361 16.1918C6.0997 16.6127 6.31837 16.9698 6.67424 17.3256C7.02985 17.6816 7.38692 17.9008 7.80759 18.0642C8.21479 18.2225 8.68 18.3304 9.3612 18.3616C10.0439 18.3926 10.2619 18.4002 11.9999 18.4002C13.7382 18.4002 13.9557 18.3926 14.6383 18.3616C15.3197 18.3304 15.7853 18.2225 16.1925 18.0642C16.6133 17.9008 16.9698 17.6816 17.3254 17.3256C17.6814 16.9698 17.9001 16.6127 18.0641 16.1919C18.2214 15.7849 18.3294 15.3197 18.3614 14.6386C18.3921 13.9559 18.4001 13.7383 18.4001 12.0002C18.4001 10.262 18.3921 10.0439 18.3614 9.3612C18.3294 8.67986 18.2214 8.21479 18.0641 7.80785C17.9001 7.38692 17.6814 7.02985 17.3254 6.67411C16.9694 6.31811 16.6134 6.09944 16.1921 5.9361C15.7841 5.77783 15.3187 5.66997 14.6374 5.63876C13.9547 5.6077 13.7374 5.6001 11.9987 5.6001H12.0007ZM11.4265 6.75343C11.5969 6.75316 11.7871 6.75343 12.0007 6.75343C13.7095 6.75343 13.912 6.75956 14.5868 6.79023C15.2108 6.81876 15.5495 6.92303 15.7751 7.01063C16.0738 7.12663 16.2867 7.2653 16.5106 7.4893C16.7346 7.7133 16.8733 7.92664 16.9895 8.22531C17.0771 8.45064 17.1815 8.78931 17.2099 9.41332C17.2406 10.088 17.2473 10.2907 17.2473 11.9987C17.2473 13.7067 17.2406 13.9094 17.2099 14.584C17.1814 15.208 17.0771 15.5467 16.9895 15.7721C16.8735 16.0707 16.7346 16.2834 16.5106 16.5073C16.2866 16.7313 16.0739 16.8699 15.7751 16.9859C15.5498 17.0739 15.2108 17.1779 14.5868 17.2065C13.9122 17.2371 13.7095 17.2438 12.0007 17.2438C10.2917 17.2438 10.0892 17.2371 9.41451 17.2065C8.7905 17.1777 8.45183 17.0734 8.2261 16.9858C7.92743 16.8698 7.71409 16.7311 7.49009 16.5071C7.26609 16.2831 7.12742 16.0703 7.01115 15.7715C6.92355 15.5462 6.81915 15.2075 6.79075 14.5835C6.76008 13.9088 6.75395 13.7062 6.75395 11.9971C6.75395 10.288 6.76008 10.0864 6.79075 9.41172C6.81928 8.78771 6.92355 8.44904 7.01115 8.22344C7.12715 7.92477 7.26609 7.71143 7.49009 7.48743C7.71409 7.26343 7.92743 7.12476 8.2261 7.00849C8.4517 6.92049 8.7905 6.81649 9.41451 6.78783C10.0049 6.76116 10.2337 6.75316 11.4265 6.75182V6.75343ZM15.417 7.81611C14.993 7.81611 14.649 8.15971 14.649 8.58385C14.649 9.00785 14.993 9.35185 15.417 9.35185C15.841 9.35185 16.185 9.00785 16.185 8.58385C16.185 8.15984 15.841 7.81611 15.417 7.81611ZM12.0007 8.71345C10.1856 8.71345 8.71401 10.1851 8.71401 12.0001C8.71401 13.8152 10.1856 15.2862 12.0007 15.2862C13.8158 15.2862 15.2869 13.8152 15.2869 12.0001C15.2869 10.1851 13.8158 8.71345 12.0007 8.71345ZM12.0007 9.86679C13.1788 9.86679 14.134 10.8219 14.134 12.0001C14.134 13.1783 13.1788 14.1335 12.0007 14.1335C10.8224 14.1335 9.86733 13.1783 9.86733 12.0001C9.86733 10.8219 10.8224 9.86679 12.0007 9.86679Z" fill="white"/>
</svg>
